<?xml version="1.0" standalone="no"?>
<!DOCTYPE svg PUBLIC "-//W3C//DTD SVG 20010904//EN"
 "http://www.w3.org/TR/2001/REC-SVG-20010904/DTD/svg10.dtd">
<svg version="1.0" xmlns="http://www.w3.org/2000/svg"
 width="16.000000pt" height="16.000000pt" viewBox="0 0 16.000000 16.000000"
 preserveAspectRatio="xMidYMid meet">
<metadata>
Created by potrace 1.11, written by Peter Selinger 2001-2013
</metadata>
<g transform="translate(0.000000,16.000000) scale(0.006250,-0.006250)"
fill="#000000" stroke="none">
<path d="M1750 1839 c-284 -48 -472 -359 -405 -674 33 -156 134 -299 254 -360
200 -101 464 -49 570 112 l31 46 0 -101 0 -102 65 0 65 0 0 255 0 255 -222 -2
-223 -3 -3 -57 -3 -58 151 0 150 0 -6 -27 c-4 -16 -20 -55 -37 -87 -55 -103
-153 -156 -291 -156 -92 0 -131 12 -204 60 -238 159 -216 596 37 733 67 37
139 49 213 37 83 -13 143 -46 203 -113 l53 -58 68 3 69 3 3 63 3 62 -31 0
c-23 0 -48 14 -93 52 -79 65 -163 105 -252 118 -80 11 -90 11 -165 -1z"/>
<path d="M234 1816 c-3 -7 -4 -35 -2 -62 l3 -49 48 -3 c26 -2 47 -4 47 -5 0
-1 76 -211 168 -467 l168 -465 98 0 99 0 170 467 171 467 46 3 45 3 0 60 0 60
-170 0 -170 0 0 -60 0 -60 48 -3 c36 -2 47 -7 43 -17 -2 -7 -67 -187 -142
-399 -76 -212 -141 -386 -144 -386 -3 0 -63 174 -134 388 -71 213 -131 393
-134 400 -3 8 9 12 42 12 l46 0 0 65 0 65 -170 0 c-136 0 -172 -3 -176 -14z"/>
</g>
</svg>
